<svg xmlns="http://www.w3.org/2000/svg" viewBox="0 0 36 36">
  <!-- Fond jaune avec coins arrondis (style Twemoji) -->
  <rect width="36" height="36" fill="#FCDD09" rx="4"/>

  <!-- Croix occitane rouge -->
  <g fill="#C8102E">
    <!-- Branche verticale centrale -->
    <rect x="15" y="4" width="6" height="28" rx="0.5"/>

    <!-- Branche horizontale centrale -->
    <rect x="4" y="15" width="28" height="6" rx="0.5"/>

    <!-- 4 boules aux extrémités principales -->
    <circle cx="18" cy="6" r="2.5"/>
    <circle cx="18" cy="30" r="2.5"/>
    <circle cx="6" cy="18" r="2.5"/>
    <circle cx="30" cy="18" r="2.5"/>

    <!-- 12 petites boules (3 par quadrant) -->
    <!-- Quadrant haut-gauche -->
    <circle cx="10.5" cy="8.5" r="1.2"/>
    <circle cx="8.5" cy="10.5" r="1.2"/>
    <circle cx="12.5" cy="6.5" r="1.2"/>

    <!-- Quadrant haut-droit -->
    <circle cx="25.5" cy="8.5" r="1.2"/>
    <circle cx="27.5" cy="10.5" r="1.2"/>
    <circle cx="23.5" cy="6.5" r="1.2"/>

    <!-- Quadrant bas-gauche -->
    <circle cx="10.5" cy="27.5" r="1.2"/>
    <circle cx="8.5" cy="25.5" r="1.2"/>
    <circle cx="12.5" cy="29.5" r="1.2"/>

    <!-- Quadrant bas-droit -->
    <circle cx="25.5" cy="27.5" r="1.2"/>
    <circle cx="27.5" cy="25.5" r="1.2"/>
    <circle cx="23.5" cy="29.5" r="1.2"/>
  </g>
</svg>
